 <svg  version="1.0" xmlns="http://www.w3.org/2000/svg"  width="200.000000pt" height="200.000000pt" viewBox="0 0 200.000000 200.000000"  preserveAspectRatio="xMidYMid meet">  <g transform="translate(0.000000,200.000000) scale(0.100000,-0.100000)" fill="#ffffff" stroke="none"> <path d="M770 1434 c-184 -107 -381 -220 -437 -251 -59 -34 -103 -64 -103 -73 0 -8 43 -39 98 -71 53 -30 197 -113 320 -184 l222 -128 0 -167 c0 -122 3 -170 13 -178 9 -7 77 28 252 129 132 76 329 189 437 251 118 68 197 119 197 128 1 9 -122 86 -319 199 l-320 184 0 167 c0 122 -3 170 -12 178 -10 7 -104 -42 -348 -184z m320 -324 c0 -253 -2 -460 -5 -460 -3 0 -86 46 -183 103 -291 170 -504 293 -559 323 -29 16 -53 31 -53 34 0 3 51 33 113 68 61 34 238 136 392 226 154 90 283 164 288 165 4 1 7 -206 7 -459z m127 68 c49 -29 180 -105 291 -168 111 -63 201 -117 201 -120 0 -3 -43 -29 -97 -59 -53 -30 -198 -113 -322 -186 -124 -72 -236 -138 -250 -146 -13 -8 -29 -19 -35 -24 -5 -6 -21 -19 -35 -30 -25 -20 -25 -20 -10 0 21 28 51 55 62 55 5 0 6 5 2 12 -4 6 -3 8 3 5 5 -3 31 15 57 42 l47 48 -3 311 c-2 172 -2 312 -2 312 1 0 42 -24 91 -52z m-232 -518 c36 -22 70 -40 75 -40 19 0 8 -16 -70 -100 l-80 -84 0 132 c0 73 2 132 5 132 2 0 34 -18 70 -40z"/> </g> </svg> 